<svg xmlns="http://www.w3.org/2000/svg" xmlns:xlink="http://www.w3.org/1999/xlink">
  <defs>
    <symbol viewBox="0 0 24 24" id="files"
      xmlns="http://www.w3.org/2000/svg">
      <path
        d="M17.5 0H8.5L7 1.5V6H2.5L1 7.5V22.5699L2.5 24H14.5699L16 22.5699V18H20.7L22 16.5699V4.5L17.5 0ZM17.5 2.12L19.88 4.5H17.5V2.12ZM14.5 22.5H2.5V7.5H7V16.5699L8.5 18H14.5V22.5ZM20.5 16.5H8.5V1.5H16V6H20.5V16.5Z"
      />
    </symbol>
    <symbol viewBox="0 0 23 24" id="search"
      xmlns="http://www.w3.org/2000/svg">
      <path
        d="M14.25 1.02546e-06C12.6605 -0.000791296 11.1046 0.457574 9.76941 1.32007C8.43422 2.18256 7.37657 3.4124 6.72375 4.8617C6.07094 6.31099 5.85077 7.91801 6.0896 9.4895C6.32843 11.061 7.01604 12.5301 8.06995 13.72L0 22.88L1.12 23.88L9.17004 14.76C10.2055 15.5693 11.4192 16.1196 12.7103 16.365C14.0014 16.6104 15.3325 16.5437 16.5927 16.1707C17.8528 15.7976 19.0055 15.1288 19.955 14.2201C20.9044 13.3114 21.623 12.1891 22.0509 10.9465C22.4789 9.70396 22.6038 8.37703 22.4153 7.07642C22.2267 5.77581 21.7302 4.53915 20.967 3.46924C20.2039 2.39933 19.1962 1.52711 18.0278 0.925416C16.8595 0.323719 15.5642 0.00991516 14.25 0.0100108V1.02546e-06ZM14.25 15C12.915 15 11.6099 14.6041 10.4999 13.8624C9.38985 13.1207 8.52469 12.0665 8.01379 10.8331C7.5029 9.59973 7.36919 8.24248 7.62964 6.93311C7.89009 5.62373 8.53305 4.42106 9.47705 3.47705C10.4211 2.53305 11.6237 1.89009 12.9331 1.62964C14.2425 1.36919 15.5997 1.5029 16.8331 2.01379C18.0665 2.52469 19.1207 3.38985 19.8624 4.49988C20.6041 5.60991 21 6.91498 21 8.25C21 10.0402 20.2888 11.7571 19.0229 13.023C17.7571 14.2888 16.0402 15 14.25 15Z"
      />
    </symbol>
    <symbol viewBox="0 0 16 16" id="github"
      xmlns="http://www.w3.org/2000/svg">
      <path fill-rule="evenodd" clip-rule="evenodd"
        d="M7.97553 0C3.57186 0 0 3.57186 0 7.97553C0 11.4985 2.29969 14.4832 5.43119 15.5596C5.82263 15.6086 5.96942 15.3639 5.96942 15.1682C5.96942 14.9725 5.96942 14.4832 5.96942 13.7982C3.76758 14.2875 3.27829 12.7217 3.27829 12.7217C2.93578 11.792 2.39755 11.5474 2.39755 11.5474C1.66361 11.0581 2.44648 11.0581 2.44648 11.0581C3.22936 11.107 3.66972 11.8899 3.66972 11.8899C4.40367 13.1131 5.52905 12.7706 5.96942 12.5749C6.01835 12.0367 6.263 11.6942 6.45872 11.4985C4.69725 11.3028 2.83792 10.6177 2.83792 7.53517C2.83792 6.65443 3.1315 5.96942 3.66972 5.38226C3.6208 5.23547 3.32722 4.40367 3.76758 3.32722C3.76758 3.32722 4.4526 3.1315 5.96942 4.15902C6.6055 3.9633 7.29052 3.91437 7.97553 3.91437C8.66055 3.91437 9.34556 4.01223 9.98165 4.15902C11.4985 3.1315 12.1835 3.32722 12.1835 3.32722C12.6239 4.40367 12.3303 5.23547 12.2813 5.43119C12.7706 5.96942 13.1131 6.70336 13.1131 7.5841C13.1131 10.6667 11.2538 11.3028 9.49235 11.4985C9.78593 11.7431 10.0306 12.2324 10.0306 12.9664C10.0306 14.0428 10.0306 14.8746 10.0306 15.1682C10.0306 15.3639 10.1774 15.6086 10.5688 15.5596C13.7492 14.4832 16 11.4985 16 7.97553C15.9511 3.57186 12.3792 0 7.97553 0Z"
      />
    </symbol>
    <symbol viewBox="0 0 24 24" xmlns="http://www.w3.org/2000/svg" id="setting">
      <path fill-rule="evenodd" clip-rule="evenodd"
        d="M19.85 8.75L24 9.57996V14.42L19.85 15.25L22.2 18.77L18.77 22.2L15.25 19.85L14.42 24H9.57996L8.75 19.85L5.22998 22.2L1.80005 18.77L4.15002 15.25L0 14.42V9.57996L4.15002 8.75L1.80005 5.22998L5.22998 1.80005L8.75 4.15002L9.57996 0H14.42L15.25 4.15002L18.77 1.80005L22.2 5.22998L19.85 8.75ZM18.28 13.8199L22.28 13.01V11.01L18.28 10.2L17.74 8.90002L20.03 5.46997L18.6 4.04004L15.17 6.32996L13.87 5.79004L13.0601 1.79004H11.0601L10.25 5.79004L8.94995 6.32996L5.52002 4.04004L4.08997 5.46997L6.38 8.90002L5.83997 10.2L1.83997 11.01V13.01L5.83997 13.8199L6.38 15.12L4.08997 18.55L5.52002 19.98L8.94995 17.6899L10.25 18.23L11.0601 22.23H13.0601L13.87 18.23L15.17 17.6899L18.6 19.98L20.03 18.55L17.74 15.12L18.28 13.8199ZM10.0943 9.14807C10.6584 8.77118 11.3216 8.56995 12 8.56995C12.9089 8.57258 13.7798 8.93484 14.4225 9.57751C15.0652 10.2202 15.4274 11.0911 15.43 12C15.43 12.6784 15.2288 13.3416 14.8519 13.9056C14.475 14.4697 13.9394 14.9093 13.3126 15.1689C12.6859 15.4286 11.9962 15.4965 11.3308 15.3641C10.6654 15.2318 10.0543 14.9051 9.57457 14.4254C9.09488 13.9457 8.7682 13.3345 8.63585 12.6692C8.50351 12.0038 8.57143 11.3141 8.83104 10.6874C9.09065 10.0606 9.53029 9.52496 10.0943 9.14807ZM11.0499 13.4218C11.3311 13.6097 11.6618 13.71 12 13.71C12.2249 13.7113 12.4479 13.668 12.656 13.5825C12.8641 13.4971 13.0531 13.3712 13.2121 13.2122C13.3712 13.0531 13.497 12.8641 13.5825 12.656C13.668 12.4479 13.7113 12.2249 13.7099 12C13.7099 11.6618 13.6096 11.3311 13.4217 11.0499C13.2338 10.7687 12.9669 10.5496 12.6544 10.4202C12.3419 10.2907 11.9981 10.2569 11.6664 10.3229C11.3347 10.3889 11.03 10.5517 10.7909 10.7909C10.5517 11.03 10.3888 11.3347 10.3229 11.6664C10.2569 11.9981 10.2907 12.342 10.4202 12.6544C10.5496 12.9669 10.7687 13.2339 11.0499 13.4218Z"
      />
    </symbol>
    <symbol viewBox="0 0 10 14" id="remote"
      xmlns="http://www.w3.org/2000/svg">
      <path fill-rule="evenodd" clip-rule="evenodd"
        d="M9.90408 8.57067L5.9281 4.59463L9.90413 0.618597L9.28541 -0.00012207L5.00002 4.28527V4.90399L9.28536 9.18939L9.90408 8.57067ZM0 4.61874L4.07191 8.69064L0 12.7626L0.618719 13.3813L4.99999 9V8.38128L0.618719 4.00002L0 4.61874Z"
      />
    </symbol>
  </defs>
</svg>
