<svg xmlns="http://www.w3.org/2000/svg" xmlns:xlink="http://www.w3.org/1999/xlink">
  <defs>
    <symbol viewBox="0 0 24 24" id="files"
      xmlns="http://www.w3.org/2000/svg">
      <path
        d="M17.5 0H8.5L7 1.5V6H2.5L1 7.5V22.5699L2.5 24H14.5699L16 22.5699V18H20.7L22 16.5699V4.5L17.5 0ZM17.5 2.12L19.88 4.5H17.5V2.12ZM14.5 22.5H2.5V7.5H7V16.5699L8.5 18H14.5V22.5ZM20.5 16.5H8.5V1.5H16V6H20.5V16.5Z"
      />
    </symbol>
    <symbol viewBox="0 0 23 24" id="search"
      xmlns="http://www.w3.org/2000/svg">
      <path
        d="M14.25 1.02546e-06C12.6605 -0.000791296 11.1046 0.457574 9.76941 1.32007C8.43422 2.18256 7.37657 3.4124 6.72375 4.8617C6.07094 6.31099 5.85077 7.91801 6.0896 9.4895C6.32843 11.061 7.01604 12.5301 8.06995 13.72L0 22.88L1.12 23.88L9.17004 14.76C10.2055 15.5693 11.4192 16.1196 12.7103 16.365C14.0014 16.6104 15.3325 16.5437 16.5927 16.1707C17.8528 15.7976 19.0055 15.1288 19.955 14.2201C20.9044 13.3114 21.623 12.1891 22.0509 10.9465C22.4789 9.70396 22.6038 8.37703 22.4153 7.07642C22.2267 5.77581 21.7302 4.53915 20.967 3.46924C20.2039 2.39933 19.1962 1.52711 18.0278 0.925416C16.8595 0.323719 15.5642 0.00991516 14.25 0.0100108V1.02546e-06ZM14.25 15C12.915 15 11.6099 14.6041 10.4999 13.8624C9.38985 13.1207 8.52469 12.0665 8.01379 10.8331C7.5029 9.59973 7.36919 8.24248 7.62964 6.93311C7.89009 5.62373 8.53305 4.42106 9.47705 3.47705C10.4211 2.53305 11.6237 1.89009 12.9331 1.62964C14.2425 1.36919 15.5997 1.5029 16.8331 2.01379C18.0665 2.52469 19.1207 3.38985 19.8624 4.49988C20.6041 5.60991 21 6.91498 21 8.25C21 10.0402 20.2888 11.7571 19.0229 13.023C17.7571 14.2888 16.0402 15 14.25 15Z"
      />
    </symbol>
    <symbol viewBox="0 0 16 16" id="github"
      xmlns="http://www.w3.org/2000/svg">
      <path fill-rule="evenodd" clip-rule="evenodd"
        d="M7.97553 0C3.57186 0 0 3.57186 0 7.97553C0 11.4985 2.29969 14.4832 5.43119 15.5596C5.82263 15.6086 5.96942 15.3639 5.96942 15.1682C5.96942 14.9725 5.96942 14.4832 5.96942 13.7982C3.76758 14.2875 3.27829 12.7217 3.27829 12.7217C2.93578 11.792 2.39755 11.5474 2.39755 11.5474C1.66361 11.0581 2.44648 11.0581 2.44648 11.0581C3.22936 11.107 3.66972 11.8899 3.66972 11.8899C4.40367 13.1131 5.52905 12.7706 5.96942 12.5749C6.01835 12.0367 6.263 11.6942 6.45872 11.4985C4.69725 11.3028 2.83792 10.6177 2.83792 7.53517C2.83792 6.65443 3.1315 5.96942 3.66972 5.38226C3.6208 5.23547 3.32722 4.40367 3.76758 3.32722C3.76758 3.32722 4.4526 3.1315 5.96942 4.15902C6.6055 3.9633 7.29052 3.91437 7.97553 3.91437C8.66055 3.91437 9.34556 4.01223 9.98165 4.15902C11.4985 3.1315 12.1835 3.32722 12.1835 3.32722C12.6239 4.40367 12.3303 5.23547 12.2813 5.43119C12.7706 5.96942 13.1131 6.70336 13.1131 7.5841C13.1131 10.6667 11.2538 11.3028 9.49235 11.4985C9.78593 11.7431 10.0306 12.2324 10.0306 12.9664C10.0306 14.0428 10.0306 14.8746 10.0306 15.1682C10.0306 15.3639 10.1774 15.6086 10.5688 15.5596C13.7492 14.4832 16 11.4985 16 7.97553C15.9511 3.57186 12.3792 0 7.97553 0Z"
      />
    </symbol>
    <symbol viewBox="0 0 16 16" id="profile" xmlns="http://www.w3.org/2000/svg">
      <path
        d="M16 7.99201C16 3.58042 12.416 0 8 0C3.584 0 0 3.58042 0 7.99201C0 10.4216 1.104 12.6114 2.832 14.0819C2.848 14.0979 2.864 14.0979 2.864 14.1139C3.008 14.2258 3.152 14.3377 3.312 14.4496C3.392 14.4975 3.456 14.5614 3.536 14.6254C4.816 15.4885 6.352 16 8.016 16C9.68 16 11.216 15.4885 12.496 14.6254C12.576 14.5774 12.64 14.5135 12.72 14.4655C12.864 14.3536 13.024 14.2418 13.168 14.1299C13.184 14.1139 13.2 14.1139 13.2 14.0979C14.896 12.6114 16 10.4216 16 7.99201ZM8 14.993C6.496 14.993 5.12 14.5135 3.984 13.7143C4 13.5864 4.032 13.4585 4.064 13.3307C4.16 12.979 4.304 12.6434 4.48 12.3397C4.656 12.036 4.864 11.7642 5.12 11.5245C5.36 11.2847 5.648 11.0609 5.936 10.8851C6.24 10.7093 6.56 10.5814 6.912 10.4855C7.264 10.3896 7.632 10.3417 8 10.3417C8.592 10.3417 9.136 10.4535 9.632 10.6613C10.128 10.8691 10.56 11.1568 10.928 11.5085C11.296 11.8761 11.584 12.3077 11.792 12.8032C11.904 13.0909 11.984 13.3946 12.032 13.7143C10.88 14.5135 9.504 14.993 8 14.993ZM5.552 7.59241C5.408 7.27273 5.344 6.92108 5.344 6.56943C5.344 6.21778 5.408 5.86613 5.552 5.54645C5.696 5.22677 5.888 4.93906 6.128 4.6993C6.368 4.45954 6.656 4.26773 6.976 4.12388C7.296 3.98002 7.648 3.91608 8 3.91608C8.368 3.91608 8.704 3.98002 9.024 4.12388C9.344 4.26773 9.632 4.45954 9.872 4.6993C10.112 4.93906 10.304 5.22677 10.448 5.54645C10.592 5.86613 10.656 6.21778 10.656 6.56943C10.656 6.93706 10.592 7.27273 10.448 7.59241C10.304 7.91209 10.112 8.1998 9.872 8.43956C9.632 8.67932 9.344 8.87113 9.024 9.01499C8.384 9.28671 7.6 9.28671 6.96 9.01499C6.64 8.87113 6.352 8.67932 6.112 8.43956C5.872 8.1998 5.68 7.91209 5.552 7.59241ZM12.976 12.8991C12.976 12.8671 12.96 12.8511 12.96 12.8192C12.8 12.3237 12.576 11.8442 12.272 11.4126C11.968 10.981 11.616 10.5974 11.184 10.2777C10.864 10.038 10.512 9.83017 10.144 9.67033C10.32 9.55844 10.48 9.41459 10.608 9.28671C10.848 9.04695 11.056 8.79121 11.232 8.5035C11.408 8.21579 11.536 7.91209 11.632 7.57642C11.728 7.24076 11.76 6.9051 11.76 6.56943C11.76 6.04196 11.664 5.54645 11.472 5.0989C11.28 4.65135 11.008 4.25175 10.656 3.9001C10.32 3.56444 9.904 3.29271 9.456 3.1009C9.008 2.90909 8.512 2.81319 7.984 2.81319C7.456 2.81319 6.96 2.90909 6.512 3.1009C6.064 3.29271 5.648 3.56444 5.312 3.91608C4.976 4.25175 4.704 4.66733 4.512 5.11489C4.32 5.56244 4.224 6.05794 4.224 6.58541C4.224 6.93706 4.272 7.27273 4.368 7.59241C4.464 7.92807 4.592 8.23177 4.768 8.51948C4.928 8.80719 5.152 9.06294 5.392 9.3027C5.536 9.44655 5.696 9.57443 5.872 9.68631C5.488 9.86214 5.136 10.0699 4.832 10.3097C4.416 10.6294 4.048 11.013 3.744 11.4286C3.44 11.8601 3.216 12.3237 3.056 12.8352C3.04 12.8671 3.04 12.8991 3.04 12.9151C1.776 11.6364 0.992 9.91009 0.992 7.99201C0.992 4.13986 4.144 0.991009 8 0.991009C11.856 0.991009 15.008 4.13986 15.008 7.99201C15.008 9.91009 14.224 11.6364 12.976 12.8991Z"
      />
    </symbol>

    <symbol viewBox="0 0 24 24" xmlns="http://www.w3.org/2000/svg" id="setting">
      <path fill-rule="evenodd" clip-rule="evenodd"
        d="M19.85 8.75L24 9.57996V14.42L19.85 15.25L22.2 18.77L18.77 22.2L15.25 19.85L14.42 24H9.57996L8.75 19.85L5.22998 22.2L1.80005 18.77L4.15002 15.25L0 14.42V9.57996L4.15002 8.75L1.80005 5.22998L5.22998 1.80005L8.75 4.15002L9.57996 0H14.42L15.25 4.15002L18.77 1.80005L22.2 5.22998L19.85 8.75ZM18.28 13.8199L22.28 13.01V11.01L18.28 10.2L17.74 8.90002L20.03 5.46997L18.6 4.04004L15.17 6.32996L13.87 5.79004L13.0601 1.79004H11.0601L10.25 5.79004L8.94995 6.32996L5.52002 4.04004L4.08997 5.46997L6.38 8.90002L5.83997 10.2L1.83997 11.01V13.01L5.83997 13.8199L6.38 15.12L4.08997 18.55L5.52002 19.98L8.94995 17.6899L10.25 18.23L11.0601 22.23H13.0601L13.87 18.23L15.17 17.6899L18.6 19.98L20.03 18.55L17.74 15.12L18.28 13.8199ZM10.0943 9.14807C10.6584 8.77118 11.3216 8.56995 12 8.56995C12.9089 8.57258 13.7798 8.93484 14.4225 9.57751C15.0652 10.2202 15.4274 11.0911 15.43 12C15.43 12.6784 15.2288 13.3416 14.8519 13.9056C14.475 14.4697 13.9394 14.9093 13.3126 15.1689C12.6859 15.4286 11.9962 15.4965 11.3308 15.3641C10.6654 15.2318 10.0543 14.9051 9.57457 14.4254C9.09488 13.9457 8.7682 13.3345 8.63585 12.6692C8.50351 12.0038 8.57143 11.3141 8.83104 10.6874C9.09065 10.0606 9.53029 9.52496 10.0943 9.14807ZM11.0499 13.4218C11.3311 13.6097 11.6618 13.71 12 13.71C12.2249 13.7113 12.4479 13.668 12.656 13.5825C12.8641 13.4971 13.0531 13.3712 13.2121 13.2122C13.3712 13.0531 13.497 12.8641 13.5825 12.656C13.668 12.4479 13.7113 12.2249 13.7099 12C13.7099 11.6618 13.6096 11.3311 13.4217 11.0499C13.2338 10.7687 12.9669 10.5496 12.6544 10.4202C12.3419 10.2907 11.9981 10.2569 11.6664 10.3229C11.3347 10.3889 11.03 10.5517 10.7909 10.7909C10.5517 11.03 10.3888 11.3347 10.3229 11.6664C10.2569 11.9981 10.2907 12.342 10.4202 12.6544C10.5496 12.9669 10.7687 13.2339 11.0499 13.4218Z"
      />
    </symbol>
    <symbol viewBox="0 0 10 14" id="remote"
      xmlns="http://www.w3.org/2000/svg">
      <path fill-rule="evenodd" clip-rule="evenodd"
        d="M9.90408 8.57067L5.9281 4.59463L9.90413 0.618597L9.28541 -0.00012207L5.00002 4.28527V4.90399L9.28536 9.18939L9.90408 8.57067ZM0 4.61874L4.07191 8.69064L0 12.7626L0.618719 13.3813L4.99999 9V8.38128L0.618719 4.00002L0 4.61874Z"
      />
    </symbol>
    <symbol viewBox="0 0 14 14" id="live" xmlns="http://www.w3.org/2000/svg">
      <path
        d="M3.66658 1.01118C4.65328 0.351894 5.81331 0 7 0C8.59075 0.00177866 10.1158 0.634491 11.2407 1.75932C12.3655 2.88416 12.9982 4.40925 13 6C13 7.18669 12.6481 8.34672 11.9888 9.33342C11.3295 10.3201 10.3925 11.0891 9.2961 11.5433C9.19946 11.5833 9.10196 11.6207 9.00372 11.6555V11.6109C9.01951 11.5965 9.03502 11.5816 9.05023 11.5664C9.32779 11.2888 9.48372 10.9124 9.48372 10.5199V10.3831C9.87513 10.1611 10.2384 9.8859 10.5621 9.56213C11.507 8.61728 12.0385 7.33622 12.04 6C12.04 5.00318 11.7444 4.02875 11.1906 3.19993C10.6368 2.3711 9.84966 1.72511 8.92873 1.34365C8.00779 0.962181 6.99441 0.862373 6.01675 1.05684C5.03908 1.25131 4.14104 1.73132 3.43618 2.43618C2.73133 3.14104 2.25131 4.03908 2.05684 5.01674C1.86238 5.99441 1.96218 7.00778 2.34365 7.92872C2.72512 8.84966 3.3711 9.6368 4.19993 10.1906C4.29798 10.2561 4.39807 10.318 4.5 10.3763V10.5199C4.5 10.9124 4.65592 11.2888 4.93348 11.5664C4.94869 11.5816 4.9642 11.5965 4.98 11.6109V11.6497C4.14757 11.3521 3.3876 10.8729 2.75736 10.2426C1.91825 9.40352 1.3468 8.33443 1.11529 7.17054C0.88378 6.00665 1.0026 4.80025 1.45673 3.7039C1.91085 2.60754 2.67989 1.67047 3.66658 1.01118Z"
      />
      <path
        d="M8.34313 10.8593C8.25311 10.9493 8.13102 10.9999 8.00372 10.9999V13.5199C8.00372 13.6472 7.95315 13.7693 7.86313 13.8593C7.77311 13.9493 7.65102 13.9999 7.52372 13.9999H6.46C6.47148 13.9999 6.4559 13.9957 6.42571 13.9877C6.35052 13.9676 6.1848 13.9235 6.12059 13.8593C6.03057 13.7693 5.98 13.6472 5.98 13.5199V10.9999C5.8527 10.9999 5.73061 10.9493 5.64059 10.8593C5.63782 10.8565 5.6351 10.8537 5.63241 10.8509C5.54752 10.7618 5.5 10.6433 5.5 10.5199V8.5C5.5 8.3965 5.51572 8.29667 5.54491 8.20278C5.67148 7.79563 6.05121 7.5 6.5 7.5H7.48372C7.93548 7.5 8.31728 7.79957 8.44129 8.2109C8.46888 8.30242 8.48372 8.39948 8.48372 8.5V10.5199C8.48372 10.6453 8.43463 10.7657 8.34709 10.8553L8.34313 10.8593Z"
      />
      <path
        d="M9.63995 5.99995C9.63957 6.52524 9.48276 7.03431 9.19535 7.46487C9.37836 7.76684 9.48372 8.12111 9.48372 8.5V8.60589C9.67436 8.42419 9.84543 8.22121 9.99324 8C10.3888 7.40799 10.6 6.71196 10.6 5.99995C10.5987 5.04556 10.219 4.13063 9.54413 3.45577C8.86928 2.78091 7.95434 2.40122 6.99995 2.39995C6.28794 2.39995 5.59192 2.61109 4.9999 3.00666C4.40788 3.40223 3.94646 3.96448 3.67399 4.62229C3.40151 5.2801 3.33022 6.00394 3.46913 6.70228C3.60803 7.40061 3.9509 8.04207 4.45437 8.54554C4.46946 8.56062 4.48467 8.57557 4.5 8.59036V8.5C4.5 8.11608 4.60818 7.75742 4.79571 7.45285C4.70402 7.31375 4.62528 7.16563 4.56091 7.01024C4.3611 6.52784 4.30882 5.99702 4.41068 5.48491C4.51255 4.9728 4.76398 4.5024 5.13319 4.13319C5.5024 3.76398 5.9728 3.51254 6.48491 3.41068C6.99702 3.30881 7.52784 3.36109 8.01024 3.56091C8.49263 3.76072 8.90494 4.0991 9.19503 4.53325C9.48512 4.96739 9.63995 5.47781 9.63995 5.99995Z"
      />
      <path
        d="M8 6C8 6.55228 7.55229 7 7 7C6.44772 7 6 6.55228 6 6C6 5.44772 6.44772 5 7 5C7.55229 5 8 5.44772 8 6Z"
      />
    </symbol>
    <symbol viewBox="0 0 13 14" id="notification" xmlns="http://www.w3.org/2000/svg">
      <path fill-rule="evenodd" clip-rule="evenodd"
        d="M11 7.9C11.1 8.5 11.2 9 11.4 9.6L12 11.3L11.5 12H8C8 12.5 7.8 13 7.4 13.4C7 13.8 6.5 14 6 14C5.5 14 4.9 13.8 4.6 13.4C4.2 13 4 12.5 4 12H0.5L0 11.3L0.6 9.6C0.8 8.8 1 8 1 7.2V5C1 4.3 1.1 3.6 1.4 3C1.7 2.3 2.1 1.8 2.6 1.3C3.1 0.8 3.7 0.5 4.4 0.3C4.9 0.1 5.5 0 6 0C5.8 0.3 5.6 0.7 5.4 1.1C5.2 1.1 5 1.1 4.7 1.3C4.2 1.4 3.7 1.7 3.3 2.1C2.9 2.4 2.5 2.9 2.3 3.4C2.1 3.9 2 4.4 2 5V7.2C2 8.1 1.8 9 1.6 9.9L1.2 11H10.8L10.4 9.9C10.2246 9.37387 10.1261 8.77084 10.0371 8.22577C10.0246 8.14925 10.0123 8.07387 10 8C10.4 8 10.7 8 11 7.9ZM6 13C6.2 13 6.5 12.9 6.7 12.7C6.9 12.5 7 12.3 7 12H5C5 12.3 5.1 12.5 5.3 12.7C5.5 12.9 5.8 13 6 13ZM13 3C13 4.65685 11.6569 6 10 6C8.34315 6 7 4.65685 7 3C7 1.34315 8.34315 0 10 0C11.6569 0 13 1.34315 13 3Z"
      />
    </symbol>
    <symbol viewBox="0 0 18 24" id="branch" xmlns="http://www.w3.org/2000/svg">
      <path
        d="M18.0067 8.22168C18.0102 7.52792 17.8205 6.84689 17.4589 6.25485C17.0971 5.66281 16.5778 5.18315 15.959 4.86957C15.3401 4.556 14.6461 4.42091 13.9548 4.47941C13.2635 4.53793 12.6022 4.78773 12.0448 5.20085C11.4875 5.61397 11.0561 6.17409 10.7991 6.8185C10.5421 7.4629 10.4695 8.16613 10.5895 8.84944C10.7096 9.53274 11.0174 10.1692 11.4787 10.6874C11.94 11.2056 12.5365 11.5852 13.2012 11.7836C12.9558 12.2824 12.576 12.703 12.1047 12.9979C11.6334 13.2929 11.0892 13.4505 10.5331 13.4532H7.54371C6.43702 13.4571 5.37138 13.8727 4.55427 14.6191V7.39809C5.46159 7.21288 6.26783 6.69737 6.81668 5.95151C7.36554 5.20565 7.61784 4.28256 7.52477 3.36121C7.4317 2.43987 6.99985 1.5859 6.31292 0.964873C5.62599 0.343845 4.73295 0 3.80691 0C2.88087 0 1.98783 0.343845 1.3009 0.964873C0.613975 1.5859 0.182111 2.43987 0.0890403 3.36121C-0.00404071 4.28256 0.248307 5.20565 0.797148 5.95151C1.34599 6.69737 2.15223 7.21288 3.05955 7.39809V16.5159C2.15393 16.6891 1.34299 17.1877 0.77969 17.9176C0.21639 18.6476 -0.0603218 19.5585 0.00172888 20.4785C0.0637896 21.3984 0.460328 22.2639 1.11656 22.9115C1.77279 23.5592 2.64335 23.9444 3.56403 23.9944C4.48472 24.0445 5.39187 23.7558 6.1144 23.183C6.83693 22.6102 7.32488 21.7928 7.48621 20.885C7.64754 19.9771 7.47116 19.0417 6.99023 18.255C6.50932 17.4683 5.75717 16.8848 4.87564 16.6145C5.12152 16.1162 5.50142 15.6963 5.97272 15.4019C6.44401 15.1074 6.98803 14.9503 7.54371 14.9479H10.5331C11.4658 14.9436 12.3739 14.6486 13.1311 14.1039C13.8882 13.5592 14.4566 12.792 14.7572 11.9091C15.6531 11.7914 16.476 11.3528 17.0735 10.6748C17.671 9.9968 18.0025 9.12533 18.0067 8.22168ZM1.56483 3.73752C1.56483 3.29408 1.69633 2.8606 1.94269 2.4919C2.18906 2.12319 2.53922 1.83581 2.9489 1.66611C3.3586 1.49642 3.8094 1.45202 4.24432 1.53854C4.67924 1.62504 5.07874 1.83857 5.3923 2.15214C5.70586 2.4657 5.9194 2.8652 6.00591 3.30012C6.09241 3.73504 6.04802 4.18585 5.87832 4.59553C5.70862 5.00521 5.42125 5.35539 5.05254 5.60175C4.68383 5.84811 4.25035 5.9796 3.80691 5.9796C3.21227 5.9796 2.642 5.74339 2.22152 5.32291C1.80105 4.90245 1.56483 4.33216 1.56483 3.73752ZM6.04899 20.1794C6.04899 20.6229 5.91749 21.0563 5.67113 21.425C5.42476 21.7937 5.0746 22.0811 4.66492 22.2508C4.25523 22.4205 3.80442 22.4649 3.36951 22.3784C2.93458 22.292 2.53509 22.0784 2.22152 21.7648C1.90796 21.4512 1.69443 21.0517 1.60791 20.6169C1.52141 20.1819 1.5658 19.7311 1.7355 19.3214C1.9052 18.9117 2.19258 18.5615 2.56128 18.3152C2.92999 18.0689 3.36347 17.9373 3.80691 17.9373C4.40155 17.9373 4.97183 18.1736 5.3923 18.594C5.81277 19.0145 6.04899 19.5848 6.04899 20.1794ZM14.2699 10.4638C13.8265 10.4638 13.393 10.3322 13.0243 10.0859C12.6556 9.83954 12.3683 9.48937 12.1986 9.07969C12.0289 8.67 11.9844 8.2192 12.0709 7.78427C12.1574 7.34935 12.3709 6.94985 12.6845 6.63629C12.9981 6.32273 13.3976 6.10919 13.8325 6.02268C14.2674 5.93617 14.7183 5.98058 15.1279 6.15027C15.5377 6.31997 15.8878 6.60734 16.1341 6.97605C16.3805 7.34476 16.512 7.77823 16.512 8.22168C16.512 8.81632 16.2757 9.3866 15.8553 9.80706C15.4348 10.2275 14.8645 10.4638 14.2699 10.4638Z"
      />
    </symbol>
    <symbol viewBox="0 0 16 16" id="kebab" xmlns="http://www.w3.org/2000/svg">
      <path
        d="M4 8C4 8.19778 3.94135 8.39112 3.83147 8.55557C3.72159 8.72002 3.56541 8.84819 3.38268 8.92388C3.19996 8.99957 2.99889 9.01937 2.80491 8.98079C2.61093 8.9422 2.43275 8.84696 2.29289 8.70711C2.15304 8.56725 2.0578 8.38907 2.01922 8.19509C1.98063 8.00111 2.00043 7.80004 2.07612 7.61732C2.15181 7.43459 2.27998 7.27841 2.44443 7.16853C2.60888 7.05865 2.80222 7 3 7C3.26522 7 3.51957 7.10536 3.70711 7.29289C3.89464 7.48043 4 7.73478 4 8Z"
      />
      <path
        d="M9 8C9 8.19778 8.94135 8.39112 8.83147 8.55557C8.72159 8.72002 8.56541 8.84819 8.38268 8.92388C8.19996 8.99957 7.99889 9.01937 7.80491 8.98079C7.61093 8.9422 7.43275 8.84696 7.29289 8.70711C7.15304 8.56725 7.0578 8.38907 7.01922 8.19509C6.98063 8.00111 7.00043 7.80004 7.07612 7.61732C7.15181 7.43459 7.27998 7.27841 7.44443 7.16853C7.60888 7.05865 7.80222 7 8 7C8.26522 7 8.51957 7.10536 8.70711 7.29289C8.89464 7.48043 9 7.73478 9 8Z"
      />
      <path
        d="M14 8C14 8.19778 13.9414 8.39112 13.8315 8.55557C13.7216 8.72002 13.5654 8.84819 13.3827 8.92388C13.2 8.99957 12.9989 9.01937 12.8049 8.98079C12.6109 8.9422 12.4327 8.84696 12.2929 8.70711C12.153 8.56725 12.0578 8.38907 12.0192 8.19509C11.9806 8.00111 12.0004 7.80004 12.0761 7.61732C12.1518 7.43459 12.28 7.27841 12.4444 7.16853C12.6089 7.05865 12.8022 7 13 7C13.2652 7 13.5196 7.10536 13.7071 7.29289C13.8946 7.48043 14 7.73478 14 8Z"
      />
    </symbol>
    <symbol viewBox="0 0 6 10" id="arrow-right" xmlns="http://www.w3.org/2000/svg">
      <path fill-rule="evenodd" clip-rule="evenodd"
        d="M5.07191 5.02397L0.7146 0.666662L1.33332 0.0479431L5.99999 4.71461V5.33333L1.33332 10L0.7146 9.38128L5.07191 5.02397Z"
      />
    </symbol>
    <symbol viewBox="0 0 10 6" id="arrow-down" xmlns="http://www.w3.org/2000/svg">
      <path fill-rule="evenodd" clip-rule="evenodd"
        d="M4.97612 5.07191L9.33343 0.7146L9.95215 1.33332L5.28548 5.99999L4.66676 5.99998L9.62941e-05 1.33332L0.618815 0.714599L4.97612 5.07191Z"
      />
    </symbol>
    <symbol viewBox="0 0 148 150" id="config" xmlns="http://www.w3.org/2000/svg">
      <path
        d="M112.215 119.211L117.008 114.45C139.185 115.174 139.526 114.396 140.501 112.117L146.593 97.2846L147.046 95.8786L146.551 94.6483C146.29 93.9986 145.486 92.06 131.638 78.8573V71.9124C147.616 56.5207 147.275 55.7325 146.364 53.4797L140.298 38.4928C139.388 36.2453 139.041 35.3666 117.024 35.9684L112.231 31.0154C112.726 23.7195 112.474 16.3922 111.48 9.14753L110.862 7.74684L95.0234 0.823262C92.6907 -0.241903 91.8705 -0.625362 76.9156 15.661L70.1944 15.5598C54.7974 -0.875675 54.0678 -0.57743 51.7617 0.354589L37.0358 6.30886C34.7297 7.24088 33.9149 7.57108 34.8096 29.9396L30.0536 34.6795C7.88755 33.9552 7.5467 34.7434 6.58272 37.0122L0.479325 51.85L0 53.272L0.500628 54.5076C0.761594 55.1467 1.53384 57.064 15.4129 70.2827V77.2063C-0.564536 92.5979 -0.218359 93.3861 0.697683 95.6443L6.75847 110.647C7.68517 112.943 8.01537 113.757 30.027 113.182L34.8202 118.162C34.3234 125.446 34.5679 132.763 35.5499 139.998L36.1677 141.409L52.1079 148.375C54.4246 149.345 55.2288 149.691 70.1411 133.463L76.8623 133.548C92.2806 150.005 93.0688 149.685 95.3216 148.775L110.016 142.836C112.338 141.915 113.147 141.59 112.215 119.211ZM49.0615 84.4654C47.2031 79.6085 46.8205 74.3109 47.9616 69.2374C49.1028 64.1639 51.717 59.5404 55.4761 55.947C59.2352 52.3537 63.9718 49.9506 69.0916 49.0392C74.2114 48.1279 79.4863 48.7489 84.2545 50.8243C89.0227 52.8997 93.0717 56.3371 95.8936 60.7052C98.7154 65.0733 100.184 70.1775 100.116 75.3773C100.048 80.5771 98.4454 85.641 95.5099 89.9335C92.5744 94.226 88.4365 97.5559 83.6155 99.5055C77.0377 102.078 69.7088 101.939 63.2328 99.1205C56.7569 96.3018 51.6613 91.0323 49.0615 84.4654Z"
        fill="#40535B" />
    </symbol>
    <symbol viewBox="0 0 148 148" id="gitignore"
      xmlns="http://www.w3.org/2000/svg">
      <path
        d="M144.263 66.9725L80.0709 2.77994C79.1928 1.8988 78.1494 1.19965 77.0006 0.722608C75.8517 0.245563 74.62 0 73.376 0C72.132 0 70.9003 0.245563 69.7514 0.722608C68.6026 1.19965 67.5592 1.8988 66.6811 2.77994L53.349 16.112L70.257 33.02C72.2508 32.3415 74.3951 32.2367 76.4456 32.7175C78.496 33.1984 80.3702 34.2456 81.8545 35.7397C83.3388 37.2339 84.3736 39.1149 84.8409 41.1686C85.3081 43.2222 85.1891 45.3658 84.4975 47.355L100.775 63.6329C103.208 62.797 105.855 62.8202 108.273 63.6984C110.691 64.5767 112.735 66.2571 114.065 68.4596C115.394 70.6621 115.929 73.2537 115.58 75.8026C115.231 78.3515 114.019 80.7038 112.146 82.4675C110.272 84.2312 107.852 85.2999 105.286 85.4954C102.721 85.6909 100.166 85.0014 98.0476 83.5419C95.9289 82.0824 94.3744 79.9409 93.6429 77.4744C92.9115 75.0078 93.0474 72.3651 94.0279 69.9865L78.8265 54.7851V94.7814C81.1292 95.9223 82.9716 97.8178 84.0466 100.152C85.1217 102.486 85.3646 105.118 84.7348 107.61C84.1051 110.101 82.6407 112.302 80.5856 113.845C78.5305 115.388 76.0088 116.181 73.4405 116.09C70.8722 116 68.4123 115.033 66.4706 113.349C64.5289 111.665 63.2227 109.367 62.7694 106.838C62.3161 104.308 62.7432 101.7 63.9795 99.4467C65.2158 97.1937 67.1867 95.4323 69.5638 94.4558V54.092C68.1886 53.5277 66.9385 52.697 65.8858 51.6475C64.833 50.5981 63.9982 49.3507 63.4296 47.9772C62.861 46.6037 62.5698 45.1314 62.5727 43.6449C62.5756 42.1583 62.8725 40.6871 63.4465 39.3159L46.8011 22.6599L2.78258 66.6942C1.90064 67.5724 1.20083 68.6161 0.723322 69.7655C0.245811 70.9148 0 72.1472 0 73.3917C0 74.6363 0.245811 75.8687 0.723322 77.018C1.20083 78.1674 1.90064 79.2111 2.78258 80.0893L66.9751 144.261C67.8532 145.142 68.8966 145.841 70.0455 146.318C71.1943 146.795 72.4261 147.041 73.6701 147.041C74.914 147.041 76.1458 146.795 77.2946 146.318C78.4435 145.841 79.4869 145.142 80.365 144.261L144.263 80.3466C145.145 79.4684 145.845 78.4247 146.323 77.2753C146.8 76.126 147.046 74.8936 147.046 73.649C147.046 72.4044 146.8 71.1721 146.323 70.0228C145.845 68.8734 145.145 67.8297 144.263 66.9515"
        fill="#DD4C35" />
      <path
        d="M53.3489 16.1121L70.2569 33.02C72.2507 32.3415 74.395 32.2367 76.4455 32.7176C78.496 33.1984 80.3701 34.2456 81.8544 35.7397C83.3387 37.2339 84.3735 39.115 84.8408 41.1686C85.308 43.2222 85.1891 45.3658 84.4974 47.3551L100.775 63.6329C103.208 62.797 105.854 62.8202 108.273 63.6984C110.691 64.5767 112.735 66.2571 114.065 68.4596C115.394 70.6621 115.929 73.2537 115.58 75.8026C115.231 78.3516 114.018 80.7038 112.145 82.4675C110.272 84.2313 107.852 85.2999 105.286 85.4954C102.721 85.6909 100.166 85.0014 98.0475 83.5419C95.9289 82.0824 94.3743 79.9409 93.6429 77.4744C92.9114 75.0078 93.0473 72.3651 94.0278 69.9865L78.8264 54.7851V94.7814C81.1291 95.9223 82.9715 97.8178 84.0465 100.152C85.1216 102.486 85.3645 105.118 84.7347 107.61C84.105 110.101 82.6406 112.302 80.5855 113.845C78.5304 115.388 76.0087 116.181 73.4404 116.09C70.8721 116 68.4122 115.033 66.4705 113.349C64.5288 111.665 63.2226 109.367 62.7693 106.838C62.316 104.308 62.7431 101.7 63.9794 99.4467C65.2157 97.1937 67.1866 95.4323 69.5637 94.4558V54.092C68.1885 53.5277 66.9385 52.697 65.8857 51.6475C64.8329 50.5981 63.9981 49.3507 63.4295 47.9772C62.8609 46.6038 62.5697 45.1314 62.5726 43.6449C62.5755 42.1584 62.8724 40.6871 63.4464 39.3159L46.801 22.66"
        fill="white" />
    </symbol>
    <symbol viewBox="0 0 148 107" id="image"
      xmlns="http://www.w3.org/2000/svg">
      <path
        d="M147.046 0C147.046 35.5326 147.046 71.0653 147.046 106.598H0C0 71.0653 0 35.5326 0 0H147.046Z"
        fill="#862DCC" />
      <path
        d="M116.755 14.1269C114.046 13.5553 111.223 13.9751 108.798 15.3099C106.373 16.6446 104.508 18.8056 103.542 21.3996C102.576 23.9935 102.573 26.8481 103.534 29.4438C104.496 32.0395 106.357 34.2039 108.779 35.543C111.202 36.8822 114.025 37.3071 116.734 36.7405C119.443 36.1739 121.859 34.6534 123.542 32.4557C125.225 30.258 126.063 27.5292 125.903 24.7658C125.744 22.0024 124.598 19.3881 122.673 17.3986C121.068 15.7452 119.008 14.6063 116.755 14.1269Z"
        fill="white" />
      <path
        d="M84.6091 74.8308C75.0722 61.5686 65.5317 48.3082 55.9877 35.0496C41.8362 54.7327 27.6883 74.4106 13.5439 94.0833C32.6214 94.0833 51.7023 94.0833 70.7868 94.0833C75.3943 87.6693 80.0052 81.257 84.6196 74.8465"
        fill="white" />
      <path
        d="M105.332 53.2989C95.5535 66.8901 85.7784 80.4831 76.0069 94.0779C95.557 94.0779 115.109 94.0779 134.662 94.0779C124.891 80.4831 115.114 66.8901 105.332 53.2989Z"
        fill="white" />
    </symbol>
    <symbol viewBox="0 0 148 148" id="json"
      xmlns="http://www.w3.org/2000/svg">
      <path
        d="M0 67.3516C3.4706 67.4062 6.85783 66.2865 9.6121 64.1741C12.159 62.0411 13.9011 59.1022 14.55 55.8441C15.5701 49.8811 16.0097 43.8332 15.8627 37.7854C15.9118 29.259 16.0651 23.6422 16.3228 20.935C16.5957 17.369 17.4623 13.8735 18.8868 10.593C19.9723 8.20783 21.5507 6.07963 23.518 4.34851C25.5926 2.67177 28.0021 1.45866 30.5845 0.790747C33.7017 0.173204 36.8796 -0.0840702 40.0555 0.0239873H44.3494V12.0468H41.9755C38.2114 11.5679 34.411 12.6001 31.4065 14.9175C29.1823 18.8042 28.2683 23.3036 28.7995 27.75C29.0046 36.2098 28.724 44.6745 27.9591 53.1021C27.4022 57.6255 25.7883 61.9543 23.2481 65.7383C20.4368 69.1589 16.8547 71.8643 12.7957 73.6329C18.0269 75.6383 22.3634 79.4567 25.0148 84.392C28.0298 91.9134 29.325 100.014 28.8056 108.1C28.8056 118.058 28.9079 123.987 29.1123 125.889C29.1907 128.608 30.2953 131.196 32.2039 133.133C35.16 134.834 38.5777 135.557 41.9693 135.201H44.3432V147.242H40.0494C36.3821 147.411 32.7111 146.997 29.1737 146.015C25.9907 144.902 23.1792 142.927 21.0521 140.31C18.791 137.411 17.3485 133.958 16.8748 130.312C16.0945 123.729 15.7563 117.102 15.8627 110.474C16.0278 104.096 15.5882 97.7168 14.55 91.4217C13.8907 88.1624 12.1509 85.2209 9.6121 83.0732C6.86753 80.9386 3.47656 79.8046 0 79.859V67.3516Z"
        fill="#F5DE19" />
      <path
        d="M147.046 79.8345C143.569 79.7801 140.179 80.9141 137.434 83.0487C134.895 85.1964 133.155 88.1379 132.496 91.3972C131.461 97.6988 131.025 104.084 131.196 110.468C131.294 117.096 130.948 123.724 130.159 130.306C129.685 133.952 128.243 137.405 125.982 140.304C123.855 142.921 121.043 144.896 117.86 146.009C114.323 146.991 110.652 147.405 106.984 147.236H102.691V135.219H105.064C108.456 135.576 111.874 134.852 114.83 133.152C116.75 131.209 117.86 128.608 117.934 125.877C118.138 123.988 118.24 118.058 118.24 108.088C117.721 100.002 119.016 91.9012 122.031 84.3798C124.685 79.4491 129.021 75.6353 134.25 73.6329C130.201 71.8628 126.628 69.1597 123.822 65.7445C121.282 61.9605 119.668 57.6317 119.111 53.1083C118.347 44.6806 118.066 36.216 118.271 27.7562C118.802 23.3097 117.888 18.8104 115.664 14.9237C112.66 12.6063 108.859 11.574 105.095 12.0529H102.721V0.0240118H107.015C110.183 -0.0821639 113.352 0.175102 116.462 0.790771C119.038 1.46296 121.441 2.67807 123.51 4.35467C125.477 6.08578 127.055 8.21399 128.141 10.5992C129.565 13.8797 130.432 17.3751 130.705 20.9412C130.958 23.6484 131.112 29.2651 131.165 37.7915C131.013 43.8451 131.448 49.8992 132.465 55.8686C133.118 59.1201 134.86 62.0519 137.403 64.1803C140.158 66.2927 143.545 67.4124 147.015 67.3578L147.046 79.8345Z"
        fill="#F5DE19" />
    </symbol>
    <symbol viewBox="0 0 12 12" id="close"
      xmlns="http://www.w3.org/2000/svg">
      <path fill-rule="evenodd" clip-rule="evenodd"
        d="M5.1161 5.99992L0.558045 10.558L1.44193 11.4419L5.99999 6.88381L10.558 11.4419L11.4419 10.558L6.88387 5.99992L11.4419 1.44187L10.558 0.557983L5.99999 5.11604L1.44193 0.557983L0.558044 1.44187L5.1161 5.99992Z"
      />
    </symbol>
    <symbol viewBox="0 0 32 32" id="vscode" xmlns="http://www.w3.org/2000/svg">
      <g id="SVGRepo_bgCarrier" stroke-width="0"></g>
      <g id="SVGRepo_tracerCarrier" stroke-linecap="round" stroke-linejoin="round"></g>
      <g id="SVGRepo_iconCarrier">
        <path
          d="M30.865 3.448l-6.583-3.167c-0.766-0.37-1.677-0.214-2.276 0.385l-12.609 11.505-5.495-4.167c-0.51-0.391-1.229-0.359-1.703 0.073l-1.76 1.604c-0.583 0.526-0.583 1.443-0.005 1.969l4.766 4.349-4.766 4.349c-0.578 0.526-0.578 1.443 0.005 1.969l1.76 1.604c0.479 0.432 1.193 0.464 1.703 0.073l5.495-4.172 12.615 11.51c0.594 0.599 1.505 0.755 2.271 0.385l6.589-3.172c0.693-0.333 1.13-1.031 1.13-1.802v-21.495c0-0.766-0.443-1.469-1.135-1.802zM24.005 23.266l-9.573-7.266 9.573-7.266z"></path>
      </g>
    </symbol>
    <symbol fill="#862DCC" id="yaml" viewBox="-160 0 512 512" xmlns="http://www.w3.org/2000/svg">
      <g id="SVGRepo_bgCarrier" stroke-width="0"></g>
      <g id="SVGRepo_tracerCarrier" stroke-linecap="round" stroke-linejoin="round"></g>
      <g id="SVGRepo_iconCarrier">
        <path
          d="M176 432c0 44.112-35.888 80-80 80s-80-35.888-80-80 35.888-80 80-80 80 35.888 80 80zM25.26 25.199l13.6 272C39.499 309.972 50.041 320 62.83 320h66.34c12.789 0 23.331-10.028 23.97-22.801l13.6-272C167.425 11.49 156.496 0 142.77 0H49.23C35.504 0 24.575 11.49 25.26 25.199z"></path>
      </g>
    </symbol>
    <symbol viewBox="0 0 14 13" xmlns="http://www.w3.org/2000/svg" id="message">
      <path
        d="M13.5 0H0.5L0 0.5V9.5L0.5 10H3V12.5L3.854 12.854L6.707 10H13.5L14 9.5V0.5L13.5 0ZM13 9H6.5L6.146 9.146L4 11.293V9.5L3.5 9H1V1H13V9Z"
      />
    </symbol>
    <symbol viewBox="0 0 12 14" xmlns="http://www.w3.org/2000/svg" id="projects">
      <path fill-rule="evenodd" clip-rule="evenodd"
        d="M8.57 0.14L11.85 3.44L12 3.8V13.5L11.5 14H0.5L0 13.5V0.5L0.5 0H8.22L8.57 0.14ZM8 4H11L8 1V4ZM1 1V13H11V5H7.5L7 4.5V1H1ZM3.062 8.533L4.879 6.705L4.17 6L2 8.179V8.886L4.171 11.06L4.878 10.353L3.062 8.533ZM6.8 6.714L7.5 6.005L9.689 8.18V8.889L7.5 11.062L6.795 10.353L8.626 8.533L6.8 6.714Z"
      />
    </symbol>
    <symbol viewBox="0 0 24 24" id="extension"
      xmlns="http://www.w3.org/2000/svg">
      <g clip-path="url(#clip0_8368_4956)">
        <path fill-rule="evenodd" clip-rule="evenodd"
          d="M13.5 1.5L15 0H22.5L24 1.5V9L22.5 10.5H15L13.5 9V1.5ZM15 1.5V9H22.5V1.5H15ZM0 15V6L1.5 4.5H9L10.5 6V13.5H18L19.5 15V22.5L18 24H10.5H9H1.5L0 22.5V15ZM9 13.5V6H1.5V13.5H9ZM9 15H1.5V22.5H9V15ZM10.5 22.5H18V15H10.5V22.5Z"
        />
      </g>
      <defs>
        <clipPath id="clip0_8368_4956">
          <rect width="24" height="24" />
        </clipPath>
      </defs>
    </symbol>

  </defs>
</svg>
