<svg xmlns="http://www.w3.org/2000/svg" xmlns:xlink="http://www.w3.org/1999/xlink">
  <defs>
    <symbol viewBox="0 0 24 24" id="files"
      xmlns="http://www.w3.org/2000/svg">
      <path
        d="M17.5 0H8.5L7 1.5V6H2.5L1 7.5V22.5699L2.5 24H14.5699L16 22.5699V18H20.7L22 16.5699V4.5L17.5 0ZM17.5 2.12L19.88 4.5H17.5V2.12ZM14.5 22.5H2.5V7.5H7V16.5699L8.5 18H14.5V22.5ZM20.5 16.5H8.5V1.5H16V6H20.5V16.5Z"
      />
    </symbol>
    <symbol viewBox="0 0 23 24" id="search"
      xmlns="http://www.w3.org/2000/svg">
      <path
        d="M14.25 1.02546e-06C12.6605 -0.000791296 11.1046 0.457574 9.76941 1.32007C8.43422 2.18256 7.37657 3.4124 6.72375 4.8617C6.07094 6.31099 5.85077 7.91801 6.0896 9.4895C6.32843 11.061 7.01604 12.5301 8.06995 13.72L0 22.88L1.12 23.88L9.17004 14.76C10.2055 15.5693 11.4192 16.1196 12.7103 16.365C14.0014 16.6104 15.3325 16.5437 16.5927 16.1707C17.8528 15.7976 19.0055 15.1288 19.955 14.2201C20.9044 13.3114 21.623 12.1891 22.0509 10.9465C22.4789 9.70396 22.6038 8.37703 22.4153 7.07642C22.2267 5.77581 21.7302 4.53915 20.967 3.46924C20.2039 2.39933 19.1962 1.52711 18.0278 0.925416C16.8595 0.323719 15.5642 0.00991516 14.25 0.0100108V1.02546e-06ZM14.25 15C12.915 15 11.6099 14.6041 10.4999 13.8624C9.38985 13.1207 8.52469 12.0665 8.01379 10.8331C7.5029 9.59973 7.36919 8.24248 7.62964 6.93311C7.89009 5.62373 8.53305 4.42106 9.47705 3.47705C10.4211 2.53305 11.6237 1.89009 12.9331 1.62964C14.2425 1.36919 15.5997 1.5029 16.8331 2.01379C18.0665 2.52469 19.1207 3.38985 19.8624 4.49988C20.6041 5.60991 21 6.91498 21 8.25C21 10.0402 20.2888 11.7571 19.0229 13.023C17.7571 14.2888 16.0402 15 14.25 15Z"
      />
    </symbol>
    <symbol viewBox="0 0 16 16" id="github"
      xmlns="http://www.w3.org/2000/svg">
      <path fill-rule="evenodd" clip-rule="evenodd"
        d="M7.97553 0C3.57186 0 0 3.57186 0 7.97553C0 11.4985 2.29969 14.4832 5.43119 15.5596C5.82263 15.6086 5.96942 15.3639 5.96942 15.1682C5.96942 14.9725 5.96942 14.4832 5.96942 13.7982C3.76758 14.2875 3.27829 12.7217 3.27829 12.7217C2.93578 11.792 2.39755 11.5474 2.39755 11.5474C1.66361 11.0581 2.44648 11.0581 2.44648 11.0581C3.22936 11.107 3.66972 11.8899 3.66972 11.8899C4.40367 13.1131 5.52905 12.7706 5.96942 12.5749C6.01835 12.0367 6.263 11.6942 6.45872 11.4985C4.69725 11.3028 2.83792 10.6177 2.83792 7.53517C2.83792 6.65443 3.1315 5.96942 3.66972 5.38226C3.6208 5.23547 3.32722 4.40367 3.76758 3.32722C3.76758 3.32722 4.4526 3.1315 5.96942 4.15902C6.6055 3.9633 7.29052 3.91437 7.97553 3.91437C8.66055 3.91437 9.34556 4.01223 9.98165 4.15902C11.4985 3.1315 12.1835 3.32722 12.1835 3.32722C12.6239 4.40367 12.3303 5.23547 12.2813 5.43119C12.7706 5.96942 13.1131 6.70336 13.1131 7.5841C13.1131 10.6667 11.2538 11.3028 9.49235 11.4985C9.78593 11.7431 10.0306 12.2324 10.0306 12.9664C10.0306 14.0428 10.0306 14.8746 10.0306 15.1682C10.0306 15.3639 10.1774 15.6086 10.5688 15.5596C13.7492 14.4832 16 11.4985 16 7.97553C15.9511 3.57186 12.3792 0 7.97553 0Z"
      />
    </symbol>
    <symbol viewBox="0 0 16 16" id="profile" xmlns="http://www.w3.org/2000/svg">
      <path
        d="M16 7.99201C16 3.58042 12.416 0 8 0C3.584 0 0 3.58042 0 7.99201C0 10.4216 1.104 12.6114 2.832 14.0819C2.848 14.0979 2.864 14.0979 2.864 14.1139C3.008 14.2258 3.152 14.3377 3.312 14.4496C3.392 14.4975 3.456 14.5614 3.536 14.6254C4.816 15.4885 6.352 16 8.016 16C9.68 16 11.216 15.4885 12.496 14.6254C12.576 14.5774 12.64 14.5135 12.72 14.4655C12.864 14.3536 13.024 14.2418 13.168 14.1299C13.184 14.1139 13.2 14.1139 13.2 14.0979C14.896 12.6114 16 10.4216 16 7.99201ZM8 14.993C6.496 14.993 5.12 14.5135 3.984 13.7143C4 13.5864 4.032 13.4585 4.064 13.3307C4.16 12.979 4.304 12.6434 4.48 12.3397C4.656 12.036 4.864 11.7642 5.12 11.5245C5.36 11.2847 5.648 11.0609 5.936 10.8851C6.24 10.7093 6.56 10.5814 6.912 10.4855C7.264 10.3896 7.632 10.3417 8 10.3417C8.592 10.3417 9.136 10.4535 9.632 10.6613C10.128 10.8691 10.56 11.1568 10.928 11.5085C11.296 11.8761 11.584 12.3077 11.792 12.8032C11.904 13.0909 11.984 13.3946 12.032 13.7143C10.88 14.5135 9.504 14.993 8 14.993ZM5.552 7.59241C5.408 7.27273 5.344 6.92108 5.344 6.56943C5.344 6.21778 5.408 5.86613 5.552 5.54645C5.696 5.22677 5.888 4.93906 6.128 4.6993C6.368 4.45954 6.656 4.26773 6.976 4.12388C7.296 3.98002 7.648 3.91608 8 3.91608C8.368 3.91608 8.704 3.98002 9.024 4.12388C9.344 4.26773 9.632 4.45954 9.872 4.6993C10.112 4.93906 10.304 5.22677 10.448 5.54645C10.592 5.86613 10.656 6.21778 10.656 6.56943C10.656 6.93706 10.592 7.27273 10.448 7.59241C10.304 7.91209 10.112 8.1998 9.872 8.43956C9.632 8.67932 9.344 8.87113 9.024 9.01499C8.384 9.28671 7.6 9.28671 6.96 9.01499C6.64 8.87113 6.352 8.67932 6.112 8.43956C5.872 8.1998 5.68 7.91209 5.552 7.59241ZM12.976 12.8991C12.976 12.8671 12.96 12.8511 12.96 12.8192C12.8 12.3237 12.576 11.8442 12.272 11.4126C11.968 10.981 11.616 10.5974 11.184 10.2777C10.864 10.038 10.512 9.83017 10.144 9.67033C10.32 9.55844 10.48 9.41459 10.608 9.28671C10.848 9.04695 11.056 8.79121 11.232 8.5035C11.408 8.21579 11.536 7.91209 11.632 7.57642C11.728 7.24076 11.76 6.9051 11.76 6.56943C11.76 6.04196 11.664 5.54645 11.472 5.0989C11.28 4.65135 11.008 4.25175 10.656 3.9001C10.32 3.56444 9.904 3.29271 9.456 3.1009C9.008 2.90909 8.512 2.81319 7.984 2.81319C7.456 2.81319 6.96 2.90909 6.512 3.1009C6.064 3.29271 5.648 3.56444 5.312 3.91608C4.976 4.25175 4.704 4.66733 4.512 5.11489C4.32 5.56244 4.224 6.05794 4.224 6.58541C4.224 6.93706 4.272 7.27273 4.368 7.59241C4.464 7.92807 4.592 8.23177 4.768 8.51948C4.928 8.80719 5.152 9.06294 5.392 9.3027C5.536 9.44655 5.696 9.57443 5.872 9.68631C5.488 9.86214 5.136 10.0699 4.832 10.3097C4.416 10.6294 4.048 11.013 3.744 11.4286C3.44 11.8601 3.216 12.3237 3.056 12.8352C3.04 12.8671 3.04 12.8991 3.04 12.9151C1.776 11.6364 0.992 9.91009 0.992 7.99201C0.992 4.13986 4.144 0.991009 8 0.991009C11.856 0.991009 15.008 4.13986 15.008 7.99201C15.008 9.91009 14.224 11.6364 12.976 12.8991Z"
      />
    </symbol>

    <symbol viewBox="0 0 24 24" xmlns="http://www.w3.org/2000/svg" id="setting">
      <path fill-rule="evenodd" clip-rule="evenodd"
        d="M19.85 8.75L24 9.57996V14.42L19.85 15.25L22.2 18.77L18.77 22.2L15.25 19.85L14.42 24H9.57996L8.75 19.85L5.22998 22.2L1.80005 18.77L4.15002 15.25L0 14.42V9.57996L4.15002 8.75L1.80005 5.22998L5.22998 1.80005L8.75 4.15002L9.57996 0H14.42L15.25 4.15002L18.77 1.80005L22.2 5.22998L19.85 8.75ZM18.28 13.8199L22.28 13.01V11.01L18.28 10.2L17.74 8.90002L20.03 5.46997L18.6 4.04004L15.17 6.32996L13.87 5.79004L13.0601 1.79004H11.0601L10.25 5.79004L8.94995 6.32996L5.52002 4.04004L4.08997 5.46997L6.38 8.90002L5.83997 10.2L1.83997 11.01V13.01L5.83997 13.8199L6.38 15.12L4.08997 18.55L5.52002 19.98L8.94995 17.6899L10.25 18.23L11.0601 22.23H13.0601L13.87 18.23L15.17 17.6899L18.6 19.98L20.03 18.55L17.74 15.12L18.28 13.8199ZM10.0943 9.14807C10.6584 8.77118 11.3216 8.56995 12 8.56995C12.9089 8.57258 13.7798 8.93484 14.4225 9.57751C15.0652 10.2202 15.4274 11.0911 15.43 12C15.43 12.6784 15.2288 13.3416 14.8519 13.9056C14.475 14.4697 13.9394 14.9093 13.3126 15.1689C12.6859 15.4286 11.9962 15.4965 11.3308 15.3641C10.6654 15.2318 10.0543 14.9051 9.57457 14.4254C9.09488 13.9457 8.7682 13.3345 8.63585 12.6692C8.50351 12.0038 8.57143 11.3141 8.83104 10.6874C9.09065 10.0606 9.53029 9.52496 10.0943 9.14807ZM11.0499 13.4218C11.3311 13.6097 11.6618 13.71 12 13.71C12.2249 13.7113 12.4479 13.668 12.656 13.5825C12.8641 13.4971 13.0531 13.3712 13.2121 13.2122C13.3712 13.0531 13.497 12.8641 13.5825 12.656C13.668 12.4479 13.7113 12.2249 13.7099 12C13.7099 11.6618 13.6096 11.3311 13.4217 11.0499C13.2338 10.7687 12.9669 10.5496 12.6544 10.4202C12.3419 10.2907 11.9981 10.2569 11.6664 10.3229C11.3347 10.3889 11.03 10.5517 10.7909 10.7909C10.5517 11.03 10.3888 11.3347 10.3229 11.6664C10.2569 11.9981 10.2907 12.342 10.4202 12.6544C10.5496 12.9669 10.7687 13.2339 11.0499 13.4218Z"
      />
    </symbol>
    <symbol viewBox="0 0 10 14" id="remote"
      xmlns="http://www.w3.org/2000/svg">
      <path fill-rule="evenodd" clip-rule="evenodd"
        d="M9.90408 8.57067L5.9281 4.59463L9.90413 0.618597L9.28541 -0.00012207L5.00002 4.28527V4.90399L9.28536 9.18939L9.90408 8.57067ZM0 4.61874L4.07191 8.69064L0 12.7626L0.618719 13.3813L4.99999 9V8.38128L0.618719 4.00002L0 4.61874Z"
      />
    </symbol>
    <symbol viewBox="0 0 14 14" id="live" xmlns="http://www.w3.org/2000/svg">
      <path
        d="M3.66658 1.01118C4.65328 0.351894 5.81331 0 7 0C8.59075 0.00177866 10.1158 0.634491 11.2407 1.75932C12.3655 2.88416 12.9982 4.40925 13 6C13 7.18669 12.6481 8.34672 11.9888 9.33342C11.3295 10.3201 10.3925 11.0891 9.2961 11.5433C9.19946 11.5833 9.10196 11.6207 9.00372 11.6555V11.6109C9.01951 11.5965 9.03502 11.5816 9.05023 11.5664C9.32779 11.2888 9.48372 10.9124 9.48372 10.5199V10.3831C9.87513 10.1611 10.2384 9.8859 10.5621 9.56213C11.507 8.61728 12.0385 7.33622 12.04 6C12.04 5.00318 11.7444 4.02875 11.1906 3.19993C10.6368 2.3711 9.84966 1.72511 8.92873 1.34365C8.00779 0.962181 6.99441 0.862373 6.01675 1.05684C5.03908 1.25131 4.14104 1.73132 3.43618 2.43618C2.73133 3.14104 2.25131 4.03908 2.05684 5.01674C1.86238 5.99441 1.96218 7.00778 2.34365 7.92872C2.72512 8.84966 3.3711 9.6368 4.19993 10.1906C4.29798 10.2561 4.39807 10.318 4.5 10.3763V10.5199C4.5 10.9124 4.65592 11.2888 4.93348 11.5664C4.94869 11.5816 4.9642 11.5965 4.98 11.6109V11.6497C4.14757 11.3521 3.3876 10.8729 2.75736 10.2426C1.91825 9.40352 1.3468 8.33443 1.11529 7.17054C0.88378 6.00665 1.0026 4.80025 1.45673 3.7039C1.91085 2.60754 2.67989 1.67047 3.66658 1.01118Z"
      />
      <path
        d="M8.34313 10.8593C8.25311 10.9493 8.13102 10.9999 8.00372 10.9999V13.5199C8.00372 13.6472 7.95315 13.7693 7.86313 13.8593C7.77311 13.9493 7.65102 13.9999 7.52372 13.9999H6.46C6.47148 13.9999 6.4559 13.9957 6.42571 13.9877C6.35052 13.9676 6.1848 13.9235 6.12059 13.8593C6.03057 13.7693 5.98 13.6472 5.98 13.5199V10.9999C5.8527 10.9999 5.73061 10.9493 5.64059 10.8593C5.63782 10.8565 5.6351 10.8537 5.63241 10.8509C5.54752 10.7618 5.5 10.6433 5.5 10.5199V8.5C5.5 8.3965 5.51572 8.29667 5.54491 8.20278C5.67148 7.79563 6.05121 7.5 6.5 7.5H7.48372C7.93548 7.5 8.31728 7.79957 8.44129 8.2109C8.46888 8.30242 8.48372 8.39948 8.48372 8.5V10.5199C8.48372 10.6453 8.43463 10.7657 8.34709 10.8553L8.34313 10.8593Z"
      />
      <path
        d="M9.63995 5.99995C9.63957 6.52524 9.48276 7.03431 9.19535 7.46487C9.37836 7.76684 9.48372 8.12111 9.48372 8.5V8.60589C9.67436 8.42419 9.84543 8.22121 9.99324 8C10.3888 7.40799 10.6 6.71196 10.6 5.99995C10.5987 5.04556 10.219 4.13063 9.54413 3.45577C8.86928 2.78091 7.95434 2.40122 6.99995 2.39995C6.28794 2.39995 5.59192 2.61109 4.9999 3.00666C4.40788 3.40223 3.94646 3.96448 3.67399 4.62229C3.40151 5.2801 3.33022 6.00394 3.46913 6.70228C3.60803 7.40061 3.9509 8.04207 4.45437 8.54554C4.46946 8.56062 4.48467 8.57557 4.5 8.59036V8.5C4.5 8.11608 4.60818 7.75742 4.79571 7.45285C4.70402 7.31375 4.62528 7.16563 4.56091 7.01024C4.3611 6.52784 4.30882 5.99702 4.41068 5.48491C4.51255 4.9728 4.76398 4.5024 5.13319 4.13319C5.5024 3.76398 5.9728 3.51254 6.48491 3.41068C6.99702 3.30881 7.52784 3.36109 8.01024 3.56091C8.49263 3.76072 8.90494 4.0991 9.19503 4.53325C9.48512 4.96739 9.63995 5.47781 9.63995 5.99995Z"
      />
      <path
        d="M8 6C8 6.55228 7.55229 7 7 7C6.44772 7 6 6.55228 6 6C6 5.44772 6.44772 5 7 5C7.55229 5 8 5.44772 8 6Z"
      />
    </symbol>
    <symbol viewBox="0 0 13 14" id="notification" xmlns="http://www.w3.org/2000/svg">
      <path fill-rule="evenodd" clip-rule="evenodd"
        d="M11 7.9C11.1 8.5 11.2 9 11.4 9.6L12 11.3L11.5 12H8C8 12.5 7.8 13 7.4 13.4C7 13.8 6.5 14 6 14C5.5 14 4.9 13.8 4.6 13.4C4.2 13 4 12.5 4 12H0.5L0 11.3L0.6 9.6C0.8 8.8 1 8 1 7.2V5C1 4.3 1.1 3.6 1.4 3C1.7 2.3 2.1 1.8 2.6 1.3C3.1 0.8 3.7 0.5 4.4 0.3C4.9 0.1 5.5 0 6 0C5.8 0.3 5.6 0.7 5.4 1.1C5.2 1.1 5 1.1 4.7 1.3C4.2 1.4 3.7 1.7 3.3 2.1C2.9 2.4 2.5 2.9 2.3 3.4C2.1 3.9 2 4.4 2 5V7.2C2 8.1 1.8 9 1.6 9.9L1.2 11H10.8L10.4 9.9C10.2246 9.37387 10.1261 8.77084 10.0371 8.22577C10.0246 8.14925 10.0123 8.07387 10 8C10.4 8 10.7 8 11 7.9ZM6 13C6.2 13 6.5 12.9 6.7 12.7C6.9 12.5 7 12.3 7 12H5C5 12.3 5.1 12.5 5.3 12.7C5.5 12.9 5.8 13 6 13ZM13 3C13 4.65685 11.6569 6 10 6C8.34315 6 7 4.65685 7 3C7 1.34315 8.34315 0 10 0C11.6569 0 13 1.34315 13 3Z"
      />
    </symbol>
  </defs>
</svg>
